<svg width="512" height="512" viewBox="0 0 512 512" fill="none" xmlns="http://www.w3.org/2000/svg">
  <defs>
    <filter id="shadow" x="269" y="193" width="55" height="48" filterUnits="userSpaceOnUse" color-interpolation-filters="sRGB">
      <feFlood flood-opacity="0" result="BackgroundImageFix"/>
      <feColorMatrix in="SourceAlpha" type="matrix" values="0 0 0 0 0 0 0 0 0 0 0 0 0 0 0 0 0 0 127 0" result="hardAlpha"/>
      <feOffset dy="2"/>
      <feGaussianBlur stdDeviation="3"/>
      <feColorMatrix type="matrix" values="0 0 0 0 0.84 0 0 0 0 0.16 0 0 0 0 0.24 0 0 0 0.24 0"/>
      <feBlend mode="normal" in2="BackgroundImageFix" result="effect1_dropShadow_1_1"/>
      <feBlend mode="normal" in="SourceGraphic" in2="effect1_dropShadow_1_1" result="shape"/>
    </filter>
    <linearGradient id="heartFill" x1="282" y1="205" x2="309" y2="231" gradientUnits="userSpaceOnUse">
      <stop stop-color="#FF7F8C"/>
      <stop offset="1" stop-color="#E23847"/>
    </linearGradient>
  </defs>
  <g filter="url(#shadow)">
    <path d="M296.154 233C294.55 233 293.047 232.534 291.646 231.603C283.549 226.225 277.5 220.822 273.5 215.393C270.833 211.775 269.5 208.239 269.5 204.786C269.5 201.179 270.685 198.185 273.056 195.804C275.427 193.435 278.399 192.25 281.972 192.25C284.04 192.25 285.995 192.751 287.838 193.754C289.68 194.757 291.119 196.128 292.154 197.869L296.154 204.5L300.154 197.869C301.189 196.128 302.628 194.757 304.47 193.754C306.313 192.751 308.268 192.25 310.336 192.25C313.909 192.25 316.881 193.435 319.252 195.804C321.623 198.185 322.808 201.179 322.808 204.786C322.808 208.239 321.475 211.775 318.808 215.393C314.808 220.822 308.759 226.225 300.662 231.603C299.261 232.534 297.758 233 296.154 233Z" fill="url(#heartFill)" transform="translate(0 8)"/>
  </g>
</svg>
